<svg xmlns="http://www.w3.org/2000/svg" viewBox="0 0 960 510" role="img" aria-label="Clone comparison C" style="width:100%;height:auto;background:#101b2c"><title>Clone comparison C</title><g font-family="system-ui,sans-serif" font-size="11" fill="#b7c6dc"><rect x="82" y="30" width="212.5" height="86.5" fill="rgb(61,144,137)"><title>Row 1, column 1: 0.65</title></rect><text x="188.75" y="77.75" text-anchor="middle" fill="#eaf3fc">0.65</text><rect x="295.5" y="30" width="212.5" height="86.5" fill="rgb(39,72,88)"><title>Row 1, column 2: 0.12</title></rect><text x="402.25" y="77.75" text-anchor="middle" fill="#eaf3fc">0.12</text><rect x="509" y="30" width="212.5" height="86.5" fill="rgb(35,60,80)"><title>Row 1, column 3: 0.03</title></rect><text x="615.75" y="77.75" text-anchor="middle" fill="#eaf3fc">0.03</text><rect x="722.5" y="30" width="212.5" height="86.5" fill="rgb(35,59,79)"><title>Row 1, column 4: 0.02</title></rect><text x="829.25" y="77.75" text-anchor="middle" fill="#eaf3fc">0.02</text><rect x="82" y="117.5" width="212.5" height="86.5" fill="rgb(35,59,79)"><title>Row 2, column 1: 0.02</title></rect><text x="188.75" y="165.25" text-anchor="middle" fill="#eaf3fc">0.02</text><rect x="295.5" y="117.5" width="212.5" height="86.5" fill="rgb(78,201,177)"><title>Row 2, column 2: 1.08</title></rect><text x="402.25" y="165.25" text-anchor="middle" fill="#eaf3fc">1.08</text><rect x="509" y="117.5" width="212.5" height="86.5" fill="rgb(35,59,79)"><title>Row 2, column 3: 0.02</title></rect><text x="615.75" y="165.25" text-anchor="middle" fill="#eaf3fc">0.02</text><rect x="722.5" y="117.5" width="212.5" height="86.5" fill="rgb(35,58,78)"><title>Row 2, column 4: 0.01</title></rect><text x="829.25" y="165.25" text-anchor="middle" fill="#eaf3fc">0.01</text><rect x="82" y="205" width="212.5" height="86.5" fill="rgb(35,58,78)"><title>Row 3, column 1: 0.01</title></rect><text x="188.75" y="252.75" text-anchor="middle" fill="#eaf3fc">0.01</text><rect x="295.5" y="205" width="212.5" height="86.5" fill="rgb(35,59,79)"><title>Row 3, column 2: 0.02</title></rect><text x="402.25" y="252.75" text-anchor="middle" fill="#eaf3fc">0.02</text><rect x="509" y="205" width="212.5" height="86.5" fill="rgb(77,196,173)"><title>Row 3, column 3: 1.04</title></rect><text x="615.75" y="252.75" text-anchor="middle" fill="#eaf3fc">1.04</text><rect x="722.5" y="205" width="212.5" height="86.5" fill="rgb(35,59,79)"><title>Row 3, column 4: 0.02</title></rect><text x="829.25" y="252.75" text-anchor="middle" fill="#eaf3fc">0.02</text><rect x="82" y="292.5" width="212.5" height="86.5" fill="rgb(36,63,82)"><title>Row 4, column 1: 0.05</title></rect><text x="188.75" y="340.25" text-anchor="middle" fill="#eaf3fc">0.05</text><rect x="295.5" y="292.5" width="212.5" height="86.5" fill="rgb(35,58,78)"><title>Row 4, column 2: 0.01</title></rect><text x="402.25" y="340.25" text-anchor="middle" fill="#eaf3fc">0.01</text><rect x="509" y="292.5" width="212.5" height="86.5" fill="rgb(35,59,79)"><title>Row 4, column 3: 0.02</title></rect><text x="615.75" y="340.25" text-anchor="middle" fill="#eaf3fc">0.02</text><rect x="722.5" y="292.5" width="212.5" height="86.5" fill="rgb(63,150,142)"><title>Row 4, column 4: 0.7</title></rect><text x="829.25" y="340.25" text-anchor="middle" fill="#eaf3fc">0.7</text><text x="73" y="77.75" text-anchor="end">Vx</text><text x="73" y="165.25" text-anchor="end">Vv</text><text x="73" y="252.75" text-anchor="end">Ev</text><text x="73" y="340.25" text-anchor="end">Wb</text><text x="188.75" y="398" text-anchor="middle">Vx</text><text x="402.25" y="398" text-anchor="middle">Vv</text><text x="615.75" y="398" text-anchor="middle">Ev</text><text x="829.25" y="398" text-anchor="middle">Wb</text><text x="509" y="415" text-anchor="middle" fill="#d9e6f7"></text><text transform="translate(15 205) rotate(-90)" text-anchor="middle" fill="#d9e6f7"></text></g></svg>