<svg xmlns="http://www.w3.org/2000/svg" viewBox="0 0 960 510" role="img" aria-label="curvature replicas" style="width:100%;height:auto;background:#101b2c"><title>curvature replicas</title><g font-family="system-ui,sans-serif" font-size="11" fill="#b7c6dc"><path d="M82 30V380 M82 380H936" stroke="#26364b" fill="none"/><text x="82" y="399" text-anchor="middle">-1.86</text><text x="73" y="384" text-anchor="end">-482.5</text><path d="M295.5 30V380 M82 292.5H936" stroke="#26364b" fill="none"/><text x="295.5" y="399" text-anchor="middle">6.82</text><text x="73" y="296.5" text-anchor="end">-272.5</text><path d="M509 30V380 M82 205H936" stroke="#26364b" fill="none"/><text x="509" y="399" text-anchor="middle">15.5</text><text x="73" y="209" text-anchor="end">-62.5</text><path d="M722.5 30V380 M82 117.5H936" stroke="#26364b" fill="none"/><text x="722.5" y="399" text-anchor="middle">24.18</text><text x="73" y="121.5" text-anchor="end">147.5</text><path d="M936 30V380 M82 30H936" stroke="#26364b" fill="none"/><text x="936" y="399" text-anchor="middle">32.86</text><text x="73" y="34" text-anchor="end">357.5</text><svg x="82" y="30" width="854" height="350" viewBox="82 30 854 350" overflow="hidden"><path d="M127.750 126.875L152.347 161.597L176.944 309.167L201.540 83.472L226.137 109.514L250.734 205.000L275.331 135.556L299.927 222.361L324.524 170.278L349.121 152.917L373.718 48.750L398.315 57.431L422.911 248.403L447.508 231.042L472.105 170.278L496.702 144.236L521.298 205.000L545.895 109.514L570.492 152.917L595.089 213.681L619.685 118.194L644.282 109.514L668.879 231.042L693.476 170.278L718.073 213.681L742.669 152.917L767.266 187.639L791.863 361.250L816.460 118.194L841.056 118.194L865.653 257.083L890.250 187.639" stroke="#51d2b7" stroke-width="2.2" fill="none"/></svg><text x="509" y="415" text-anchor="middle" fill="#d9e6f7">Replica</text><text transform="translate(15 205) rotate(-90)" text-anchor="middle" fill="#d9e6f7">Scalar curvature</text></g><g transform="translate(24 470)"><rect width="13" height="3" y="-4" fill="#51d2b7"/><text fill="#b7c6dc" font-family="system-ui,sans-serif" font-size="11"><tspan x="20" dy="0">curvature replicas</tspan></text></g></svg>