<svg xmlns="http://www.w3.org/2000/svg" viewBox="0 0 960 510" role="img" aria-label="Modewise multiplicative defect" style="width:100%;height:auto;background:#101b2c"><title>Modewise multiplicative defect</title><g font-family="system-ui,sans-serif" font-size="11" fill="#b7c6dc"><path d="M82 30V380 M82 380H936" stroke="#26364b" fill="none"/><text x="82" y="399" text-anchor="middle">-0.06</text><text x="73" y="384" text-anchor="end">0.1288</text><path d="M295.5 30V380 M82 292.5H936" stroke="#26364b" fill="none"/><text x="295.5" y="399" text-anchor="middle">0.22</text><text x="73" y="296.5" text-anchor="end">0.1637</text><path d="M509 30V380 M82 205H936" stroke="#26364b" fill="none"/><text x="509" y="399" text-anchor="middle">0.5</text><text x="73" y="209" text-anchor="end">0.1986</text><path d="M722.5 30V380 M82 117.5H936" stroke="#26364b" fill="none"/><text x="722.5" y="399" text-anchor="middle">0.78</text><text x="73" y="121.5" text-anchor="end">0.2335</text><path d="M936 30V380 M82 30H936" stroke="#26364b" fill="none"/><text x="936" y="399" text-anchor="middle">1.06</text><text x="73" y="34" text-anchor="end">0.2684</text><svg x="82" y="30" width="854" height="350" viewBox="82 30 854 350" overflow="hidden"><path d="M127.750 361.250L890.250 48.750" stroke="#51d2b7" stroke-width="2.2" fill="none"/><path d="M127.750 361.250L890.250 48.750" stroke="#f5ad69" stroke-width="2.2" fill="none"/></svg><text x="509" y="415" text-anchor="middle" fill="#d9e6f7">mode</text><text transform="translate(15 205) rotate(-90)" text-anchor="middle" fill="#d9e6f7">defect</text></g><g transform="translate(24 470)"><rect width="13" height="3" y="-4" fill="#51d2b7"/><text fill="#b7c6dc" font-family="system-ui,sans-serif" font-size="11"><tspan x="20" dy="0">Explicit channel</tspan></text></g><g transform="translate(489 470)"><rect width="13" height="3" y="-4" fill="#f5ad69"/><text fill="#b7c6dc" font-family="system-ui,sans-serif" font-size="11"><tspan x="20" dy="0">I minus C* C</tspan></text></g></svg>