<svg xmlns="http://www.w3.org/2000/svg" viewBox="0 0 960 510" role="img" aria-label="Central-difference variation error" style="width:100%;height:auto;background:#101b2c"><title>Central-difference variation error</title><g font-family="system-ui,sans-serif" font-size="11" fill="#b7c6dc"><path d="M82 30V380 M82 380H936" stroke="#26364b" fill="none"/><text x="82" y="399" text-anchor="middle">-0.00598</text><text x="73" y="384" text-anchor="end">-1.00e-4</text><path d="M295.5 30V380 M82 292.5H936" stroke="#26364b" fill="none"/><text x="295.5" y="399" text-anchor="middle">0.02201</text><text x="73" y="296.5" text-anchor="end">3.67e-4</text><path d="M509 30V380 M82 205H936" stroke="#26364b" fill="none"/><text x="509" y="399" text-anchor="middle">0.05001</text><text x="73" y="209" text-anchor="end">8.33e-4</text><path d="M722.5 30V380 M82 117.5H936" stroke="#26364b" fill="none"/><text x="722.5" y="399" text-anchor="middle">0.078</text><text x="73" y="121.5" text-anchor="end">0.0013</text><path d="M936 30V380 M82 30H936" stroke="#26364b" fill="none"/><text x="936" y="399" text-anchor="middle">0.106</text><text x="73" y="34" text-anchor="end">0.00177</text><svg x="82" y="30" width="854" height="350" viewBox="82 30 854 350" overflow="hidden"><path d="M890.250 184.665L556.476 305.390L368.781 343.584L263.232 355.663L203.878 359.483L170.501 360.691L151.731 361.073L141.176 361.194L135.241 361.232L131.903 361.244L130.026 361.248L128.971 361.249L128.377 361.250L128.043 361.250L127.856 361.250L127.750 361.250" stroke="#51d2b7" stroke-width="2.2" fill="none"/><path d="M890.250 48.750L556.476 262.429L368.781 330.000L263.232 351.368L203.878 358.125L170.501 360.262L151.731 360.938L141.176 361.151L135.241 361.219L131.903 361.240L130.026 361.247L128.971 361.249L128.377 361.250L128.043 361.250L127.856 361.250L127.750 361.250" stroke="#f5ad69" stroke-width="2.2" fill="none"/></svg><text x="509" y="415" text-anchor="middle" fill="#d9e6f7">variation size</text><text transform="translate(15 205) rotate(-90)" text-anchor="middle" fill="#d9e6f7">absolute error</text></g><g transform="translate(24 470)"><rect width="13" height="3" y="-4" fill="#51d2b7"/><text fill="#b7c6dc" font-family="system-ui,sans-serif" font-size="11"><tspan x="20" dy="0">Calculated</tspan></text></g><g transform="translate(489 470)"><rect width="13" height="3" y="-4" fill="#f5ad69"/><text fill="#b7c6dc" font-family="system-ui,sans-serif" font-size="11"><tspan x="20" dy="0">Prediction</tspan></text></g></svg>