<svg xmlns="http://www.w3.org/2000/svg" viewBox="0 0 960 510" role="img" aria-label="Material expansion approaches point expansion" style="width:100%;height:auto;background:#101b2c"><title>Material expansion approaches point expansion</title><g font-family="system-ui,sans-serif" font-size="11" fill="#b7c6dc"><path d="M82 30V380 M82 380H936" stroke="#26364b" fill="none"/><text x="82" y="399" text-anchor="middle">-0.00607</text><text x="73" y="384" text-anchor="end">-1.22e-4</text><path d="M295.5 30V380 M82 292.5H936" stroke="#26364b" fill="none"/><text x="295.5" y="399" text-anchor="middle">0.04837</text><text x="73" y="296.5" text-anchor="end">4.54e-4</text><path d="M509 30V380 M82 205H936" stroke="#26364b" fill="none"/><text x="509" y="399" text-anchor="middle">0.1028</text><text x="73" y="209" text-anchor="end">0.00103</text><path d="M722.5 30V380 M82 117.5H936" stroke="#26364b" fill="none"/><text x="722.5" y="399" text-anchor="middle">0.1572</text><text x="73" y="121.5" text-anchor="end">0.0016</text><path d="M936 30V380 M82 30H936" stroke="#26364b" fill="none"/><text x="936" y="399" text-anchor="middle">0.2117</text><text x="73" y="34" text-anchor="end">0.00218</text><svg x="82" y="30" width="854" height="350" viewBox="82 30 854 350" overflow="hidden"><path d="M890.250 48.750L576.466 248.941L388.196 320.980L275.233 346.910L207.456 356.244L166.790 359.605L142.390 360.815L127.750 361.250" stroke="#51d2b7" stroke-width="2.2" fill="none"/></svg><text x="509" y="415" text-anchor="middle" fill="#d9e6f7">initial cell width</text><text transform="translate(15 205) rotate(-90)" text-anchor="middle" fill="#d9e6f7">absolute expansion error</text></g><g transform="translate(24 470)"><rect width="13" height="3" y="-4" fill="#51d2b7"/><text fill="#b7c6dc" font-family="system-ui,sans-serif" font-size="11"><tspan x="20" dy="0">Measured log-volume derivative</tspan></text></g></svg>