<svg xmlns="http://www.w3.org/2000/svg" viewBox="0 0 960 510" role="img" aria-label="Cut perimeter of nested slot regions" style="width:100%;height:auto;background:#101b2c"><title>Cut perimeter of nested slot regions</title><g font-family="system-ui,sans-serif" font-size="11" fill="#b7c6dc"><path d="M82 30V380 M82 380H936" stroke="#26364b" fill="none"/><text x="82" y="399" text-anchor="middle">-1.92</text><text x="73" y="384" text-anchor="end">-183.8</text><path d="M295.5 30V380 M82 292.5H936" stroke="#26364b" fill="none"/><text x="295.5" y="399" text-anchor="middle">7.04</text><text x="73" y="296.5" text-anchor="end">673.9</text><path d="M509 30V380 M82 205H936" stroke="#26364b" fill="none"/><text x="509" y="399" text-anchor="middle">16</text><text x="73" y="209" text-anchor="end">1,532</text><path d="M722.5 30V380 M82 117.5H936" stroke="#26364b" fill="none"/><text x="722.5" y="399" text-anchor="middle">24.96</text><text x="73" y="121.5" text-anchor="end">2,389</text><path d="M936 30V380 M82 30H936" stroke="#26364b" fill="none"/><text x="936" y="399" text-anchor="middle">33.92</text><text x="73" y="34" text-anchor="end">3,247</text><svg x="82" y="30" width="854" height="350" viewBox="82 30 854 350" overflow="hidden"><path d="M127.750 361.250L151.578 320.644L175.406 284.120L199.234 252.186L223.063 222.599L246.891 191.788L270.719 166.894L294.547 140.266L318.375 120.983L342.203 105.475L366.031 89.662L389.859 77.011L413.687 66.910L437.516 56.198L461.344 49.362L485.172 48.750L509.000 52.627L532.828 52.831L556.656 54.055L580.484 56.810L604.313 65.890L628.141 78.031L651.969 91.498L675.797 108.944L699.625 125.166L723.453 148.938L747.281 173.424L771.109 198.317L794.937 225.966L818.766 257.900L842.594 288.915L866.422 324.521L890.250 361.250" stroke="#51d2b7" stroke-width="2.2" fill="none"/></svg><text x="509" y="415" text-anchor="middle" fill="#d9e6f7">region size</text><text transform="translate(15 205) rotate(-90)" text-anchor="middle" fill="#d9e6f7">executed edge count</text></g><g transform="translate(24 470)"><rect width="13" height="3" y="-4" fill="#51d2b7"/><text fill="#b7c6dc" font-family="system-ui,sans-serif" font-size="11"><tspan x="20" dy="0">Actual selected interaction cut</tspan></text></g></svg>