<svg xmlns="http://www.w3.org/2000/svg" viewBox="0 0 960 510" role="img" aria-label="Replicas fluctuate around N(N-1) times the pair integral" style="width:100%;height:auto;background:#101b2c"><title>Replicas fluctuate around N(N-1) times the pair integral</title><g font-family="system-ui,sans-serif" font-size="11" fill="#b7c6dc"><path d="M82 30V380 M82 380H936" stroke="#26364b" fill="none"/><text x="82" y="399" text-anchor="middle">-1.38</text><text x="73" y="384" text-anchor="end">8.531</text><path d="M295.5 30V380 M82 292.5H936" stroke="#26364b" fill="none"/><text x="295.5" y="399" text-anchor="middle">5.06</text><text x="73" y="296.5" text-anchor="end">12.14</text><path d="M509 30V380 M82 205H936" stroke="#26364b" fill="none"/><text x="509" y="399" text-anchor="middle">11.5</text><text x="73" y="209" text-anchor="end">15.75</text><path d="M722.5 30V380 M82 117.5H936" stroke="#26364b" fill="none"/><text x="722.5" y="399" text-anchor="middle">17.94</text><text x="73" y="121.5" text-anchor="end">19.37</text><path d="M936 30V380 M82 30H936" stroke="#26364b" fill="none"/><text x="936" y="399" text-anchor="middle">24.38</text><text x="73" y="34" text-anchor="end">22.98</text><svg x="82" y="30" width="854" height="350" viewBox="82 30 854 350" overflow="hidden"><path d="M127.750 322.542L160.902 173.078L194.054 249.148L227.207 292.376L260.359 104.267L293.511 316.854L326.663 296.452L359.815 222.813L392.967 241.884L426.120 264.547L459.272 164.446L492.424 292.305L525.576 310.892L558.728 306.666L591.880 220.539L625.033 361.250L658.185 172.971L691.337 272.815L724.489 235.500L757.641 208.280L790.793 291.366L823.946 84.410L857.098 359.664L890.250 48.750" stroke="#51d2b7" stroke-width="2.2" fill="none"/><path d="M127.750 258.668L890.250 258.668" stroke="#f5ad69" stroke-width="2.2" fill="none"/></svg><text x="509" y="415" text-anchor="middle" fill="#d9e6f7">replica index</text><text transform="translate(15 205) rotate(-90)" text-anchor="middle" fill="#d9e6f7">cut capacity</text></g><g transform="translate(24 470)"><rect width="13" height="3" y="-4" fill="#51d2b7"/><text fill="#b7c6dc" font-family="system-ui,sans-serif" font-size="11"><tspan x="20" dy="0">Independent populations</tspan></text></g><g transform="translate(489 470)"><rect width="13" height="3" y="-4" fill="#f5ad69"/><text fill="#b7c6dc" font-family="system-ui,sans-serif" font-size="11"><tspan x="20" dy="0">Quadrature expectation</tspan></text></g></svg>