<svg xmlns="http://www.w3.org/2000/svg" viewBox="0 0 960 510" role="img" aria-label="Measured cut capacity by source slot" style="width:100%;height:auto;background:#101b2c"><title>Measured cut capacity by source slot</title><g font-family="system-ui,sans-serif" font-size="11" fill="#b7c6dc"><path d="M82 30V380 M82 380H936" stroke="#26364b" fill="none"/><text x="82" y="399" text-anchor="middle">-1.86</text><text x="73" y="384" text-anchor="end">-11.4</text><path d="M295.5 30V380 M82 292.5H936" stroke="#26364b" fill="none"/><text x="295.5" y="399" text-anchor="middle">6.82</text><text x="73" y="296.5" text-anchor="end">41.8</text><path d="M509 30V380 M82 205H936" stroke="#26364b" fill="none"/><text x="509" y="399" text-anchor="middle">15.5</text><text x="73" y="209" text-anchor="end">95</text><path d="M722.5 30V380 M82 117.5H936" stroke="#26364b" fill="none"/><text x="722.5" y="399" text-anchor="middle">24.18</text><text x="73" y="121.5" text-anchor="end">148.2</text><path d="M936 30V380 M82 30H936" stroke="#26364b" fill="none"/><text x="936" y="399" text-anchor="middle">32.86</text><text x="73" y="34" text-anchor="end">201.4</text><svg x="82" y="30" width="854" height="350" viewBox="82 30 854 350" overflow="hidden"><path d="M127.750 48.750L152.347 361.250L176.944 361.250L201.540 361.250L226.137 361.250L250.734 361.250L275.331 361.250L299.927 361.250L324.524 361.250L349.121 361.250L373.718 361.250L398.315 361.250L422.911 361.250L447.508 361.250L472.105 361.250L496.702 361.250L521.298 361.250L545.895 361.250L570.492 361.250L595.089 361.250L619.685 361.250L644.282 361.250L668.879 361.250L693.476 361.250L718.073 361.250L742.669 361.250L767.266 361.250L791.863 361.250L816.460 361.250L841.056 361.250L865.653 361.250L890.250 361.250" stroke="#51d2b7" stroke-width="2.2" fill="none"/></svg><text x="509" y="415" text-anchor="middle" fill="#d9e6f7">source slot</text><text transform="translate(15 205) rotate(-90)" text-anchor="middle" fill="#d9e6f7">crossing edge count</text></g><g transform="translate(24 470)"><rect width="13" height="3" y="-4" fill="#51d2b7"/><text fill="#b7c6dc" font-family="system-ui,sans-serif" font-size="11"><tspan x="20" dy="0">Outgoing capacity across minimum partition</tspan></text></g></svg>