<?xml version="1.0" encoding="UTF-8"?>
<svg xmlns="http://www.w3.org/2000/svg" viewBox="0 0 1000 650" role="img" aria-label="Interaction triangle showing CST, IG, and IA edges with a Wilson loop">
  <defs>
    <linearGradient id="bg" x1="0" y1="0" x2="0" y2="1">
      <stop offset="0%" stop-color="#f8fbff" />
      <stop offset="100%" stop-color="#eef2f7" />
    </linearGradient>
    <pattern id="dotGrid" width="36" height="36" patternUnits="userSpaceOnUse">
      <circle cx="2" cy="2" r="1.2" fill="#cbd5e1" opacity="0.35" />
    </pattern>
    <filter id="softShadow" x="-20%" y="-20%" width="140%" height="140%">
      <feDropShadow dx="0" dy="4" stdDeviation="6" flood-color="#0b1f33" flood-opacity="0.18" result="shadow" />
      <feMerge>
        <feMergeNode in="shadow" />
        <feMergeNode in="SourceGraphic" />
      </feMerge>
    </filter>
    <marker id="arrow-cst" markerWidth="16" markerHeight="16" refX="16" refY="8" orient="auto" markerUnits="userSpaceOnUse">
      <path d="M0,0 L16,8 L0,16 z" fill="#2a6fdb" />
    </marker>
    <marker id="arrow-ig" markerWidth="16" markerHeight="16" refX="16" refY="8" orient="auto" markerUnits="userSpaceOnUse">
      <path d="M0,0 L16,8 L0,16 z" fill="#2f9e44" />
    </marker>
    <marker id="arrow-ia" markerWidth="16" markerHeight="16" refX="16" refY="8" orient="auto" markerUnits="userSpaceOnUse">
      <path d="M0,0 L16,8 L0,16 z" fill="#e07a2f" />
    </marker>
    <marker id="arrow-loop" markerWidth="10" markerHeight="10" refX="9" refY="5" orient="auto" markerUnits="strokeWidth">
      <path d="M0,0 L10,5 L0,10 z" fill="#1d3557" />
    </marker>
  </defs>
  <style>
    .title { font-family: "IBM Plex Sans", "Source Sans Pro", "Helvetica Neue", Arial, sans-serif; font-size: 26px; fill: #102a43; font-weight: 600; }
    .label { font-family: "IBM Plex Sans", "Source Sans Pro", "Helvetica Neue", Arial, sans-serif; font-size: 20px; fill: #102a43; }
    .label-small { font-family: "IBM Plex Sans", "Source Sans Pro", "Helvetica Neue", Arial, sans-serif; font-size: 16px; fill: #334e68; }
    .math { font-family: "IBM Plex Mono", "SFMono-Regular", Menlo, Consolas, monospace; font-size: 18px; fill: #102a43; }
    .node { fill: #ffffff; stroke: #1b263b; stroke-width: 3; filter: url(#softShadow); }
    .edge-cst { stroke: #2a6fdb; stroke-width: 5; }
    .edge-ig { stroke: #2f9e44; stroke-width: 5; }
    .edge-ia { stroke: #e07a2f; stroke-width: 5; }
    .loop { stroke: #1d3557; stroke-width: 3; stroke-dasharray: 10 7; fill: none; }
    .axis { stroke: #64748b; stroke-width: 2; marker-end: url(#arrow-loop); }
    .callout { fill: #ffffff; stroke: #cbd5e1; stroke-width: 2; rx: 12; }
  </style>

  <rect width="1000" height="650" fill="url(#bg)" />
  <rect width="1000" height="650" fill="url(#dotGrid)" opacity="0.35" />

  <text x="60" y="70" class="title">Interaction triangle: the atomic Wilson loop</text>

  <line x1="120" y1="520" x2="120" y2="140" class="axis" />
  <text x="80" y="535" class="label-small">t</text>
  <text x="65" y="150" class="label-small">t+1</text>
  <text x="60" y="335" class="label-small">time</text>

  <g>
    <line x1="737.0" y1="470.0" x2="243.0" y2="470.0" class="edge-ig" marker-start="url(#arrow-ig)" />
    <line x1="745.3" y1="452.3" x2="534.7" y2="197.7" class="edge-cst" marker-end="url(#arrow-cst)" />
    <line x1="503.5" y1="196.0" x2="236.5" y2="454.0" class="edge-ia" marker-start="url(#arrow-ia)" />
  </g>

  <path d="M240,450 L520,200 L740,450 Z" class="loop" marker-end="url(#arrow-loop)" />

  <circle cx="220" cy="470" r="22" fill="#ffffff" stroke="#1b263b" stroke-width="3" />
  <circle cx="760" cy="470" r="22" fill="#ffffff" stroke="#1b263b" stroke-width="3" />
  <circle cx="520" cy="180" r="22" fill="#ffffff" stroke="#1b263b" stroke-width="3" />

  <text x="145" y="505" class="math">n_{j,t}</text>
  <text x="780" y="505" class="math">n_{i,t}</text>
  <text x="540" y="150" class="math">n_{i,t+1}</text>

  <text x="300" y="520" class="label">IG edge (space / influence)</text>
  <text x="660" y="320" class="label">CST edge (time)</text>
  <text x="170" y="360" class="label">IA edge<tspan x="170" dy="24">(attribution)</tspan></text>

  <text x="465" y="425" class="math">U_IG</text>
  <text x="660" y="250" class="math">U_CST</text>
  <text x="300" y="250" class="math">U_IA</text>

  <rect x="140" y="90" width="320" height="80" class="callout" />
  <text x="160" y="120" class="label">Wilson loop around triangle</text>
  <text x="160" y="145" class="math">W(triangle) = U_IG U_CST U_IA*</text>

  <rect x="600" y="520" width="320" height="90" class="callout" />
  <line x1="620" y1="550" x2="700" y2="550" class="edge-cst" />
  <text x="710" y="556" class="label-small">CST (timelike)</text>
  <line x1="620" y1="575" x2="700" y2="575" class="edge-ig" />
  <text x="710" y="581" class="label-small">IG (spacelike)</text>
  <line x1="620" y1="600" x2="700" y2="600" class="edge-ia" />
  <text x="710" y="606" class="label-small">IA (attribution)</text>
</svg>
